<svg viewBox="0 0 22 22" fill="currentColor" xmlns="http://www.w3.org/2000/svg">
    <path fill-rule="evenodd" clip-rule="evenodd" d="M8 21C8 21.5523 7.55228 22 7 22C6.44772 22 6 21.5523 6 21C6 20.4477 6.44772 20 7 20C7.55228 20 8 20.4477 8 21ZM12 21C12 21.5523 11.5523 22 11 22C10.4477 22 10 21.5523 10 21C10 20.4477 10.4477 20 11 20C11.5523 20 12 20.4477 12 21ZM15 22C15.5523 22 16 21.5523 16 21C16 20.4477 15.5523 20 15 20C14.4477 20 14 20.4477 14 21C14 21.5523 14.4477 22 15 22Z" />
    <path fill-rule="evenodd" clip-rule="evenodd" d="M8 1C8 1.55228 7.55228 2 7 2C6.44772 2 6 1.55228 6 1C6 0.447715 6.44772 0 7 0C7.55228 0 8 0.447715 8 1ZM12 1C12 1.55228 11.5523 2 11 2C10.4477 2 10 1.55228 10 1C10 0.447715 10.4477 0 11 0C11.5523 0 12 0.447715 12 1ZM15 2C15.5523 2 16 1.55228 16 1C16 0.447715 15.5523 0 15 0C14.4477 0 14 0.447715 14 1C14 1.55228 14.4477 2 15 2ZM8 21C8 21.5523 7.55228 22 7 22C6.44772 22 6 21.5523 6 21C6 20.4477 6.44772 20 7 20C7.55228 20 8 20.4477 8 21ZM12 21C12 21.5523 11.5523 22 11 22C10.4477 22 10 21.5523 10 21C10 20.4477 10.4477 20 11 20C11.5523 20 12 20.4477 12 21ZM15 22C15.5523 22 16 21.5523 16 21C16 20.4477 15.5523 20 15 20C14.4477 20 14 20.4477 14 21C14 21.5523 14.4477 22 15 22ZM22 15C22 14.4477 21.5523 14 21 14C20.4477 14 20 14.4477 20 15C20 15.5523 20.4477 16 21 16C21.5523 16 22 15.5523 22 15ZM22 11C22 10.4477 21.5523 10 21 10C20.4477 10 20 10.4477 20 11C20 11.5523 20.4477 12 21 12C21.5523 12 22 11.5523 22 11ZM21 6C21.5523 6 22 6.44771 22 7C22 7.55229 21.5523 8 21 8C20.4477 8 20 7.55229 20 7C20 6.44771 20.4477 6 21 6ZM1 14C1.55228 14 2 14.4477 2 15C2 15.5523 1.55228 16 1 16C0.447715 16 0 15.5523 0 15C0 14.4477 0.447715 14 1 14ZM1 10C1.55228 10 2 10.4477 2 11C2 11.5523 1.55228 12 1 12C0.447715 12 0 11.5523 0 11C0 10.4477 0.447715 10 1 10ZM2 7C2 6.44771 1.55228 6 1 6C0.447715 6 0 6.44771 0 7C0 7.55229 0.447715 8 1 8C1.55228 8 2 7.55229 2 7ZM16 5H6C5.44772 5 5 5.44772 5 6V16C5 16.5523 5.44772 17 6 17H16C16.5523 17 17 16.5523 17 16V6C17 5.44772 16.5523 5 16 5ZM6 3C4.34315 3 3 4.34315 3 6V16C3 17.6569 4.34315 19 6 19H16C17.6569 19 19 17.6569 19 16V6C19 4.34315 17.6569 3 16 3H6ZM13 9H9V13H13V9ZM7 7V15H15V7H7Z" />
</svg>
