<svg viewBox="0 0 14 5" fill="currentColor" xmlns="http://www.w3.org/2000/svg">
    <path d="M11.0833 1.75C10.7612 1.75 10.5 2.01117 10.5 2.33333C10.5 2.6555 10.7612 2.91667 11.0833 2.91667C11.4055 2.91667 11.6667 2.6555 11.6667 2.33333C11.6667 2.01117 11.4055 1.75 11.0833 1.75Z" />
    <path d="M8.16667 2.33333C8.16667 2.01117 8.42783 1.75 8.75 1.75C9.07217 1.75 9.33333 2.01117 9.33333 2.33333C9.33333 2.6555 9.07217 2.91667 8.75 2.91667C8.42783 2.91667 8.16667 2.6555 8.16667 2.33333Z" />
    <path fill-rule="evenodd" clip-rule="evenodd" d="M1.16667 0C0.522334 0 0 0.522334 0 1.16667V3.5C0 4.14433 0.522334 4.66667 1.16667 4.66667H12.8333C13.4777 4.66667 14 4.14433 14 3.5V1.16667C14 0.522334 13.4777 0 12.8333 0H1.16667ZM12.8333 1.16667H1.16667L1.16667 3.5H12.8333V1.16667Z" />
</svg>
