<svg viewBox="0 0 19 18" fill="currentColor" xmlns="http://www.w3.org/2000/svg">
    <path fill-rule="evenodd" clip-rule="evenodd" d="M9.73999 18C14.7106 18 18.74 13.9706 18.74 9C18.74 4.02944 14.7106 0 9.73999 0C4.76943 0 0.73999 4.02944 0.73999 9C0.73999 13.9706 4.76943 18 9.73999 18ZM12.5455 15.4151C14.8628 14.4003 16.5247 12.1667 16.7206 9.52499C15.8977 9.97384 14.86 10.3418 13.6771 10.598C13.5282 12.4676 13.1227 14.1371 12.5455 15.4151ZM6.93449 2.58487C4.98724 3.43766 3.50274 5.15106 2.96207 7.24401C3.19369 7.46377 3.58812 7.73406 4.18831 8.00081C4.63714 8.20029 5.16052 8.37977 5.74536 8.52974C5.79852 6.20582 6.24348 4.11489 6.93449 2.58487ZM7.84059 10.9108C7.9973 12.3675 8.32518 13.6202 8.73919 14.5517C9.03322 15.2133 9.33155 15.6248 9.56178 15.8439C9.64367 15.9219 9.70294 15.9634 9.73999 15.9848C9.77705 15.9634 9.83632 15.9219 9.9182 15.8439C10.1484 15.6248 10.4468 15.2133 10.7408 14.5517C11.1548 13.6202 11.4827 12.3675 11.6394 10.9108C11.0271 10.9692 10.3916 11 9.74 11C9.08837 11 8.45291 10.9692 7.84059 10.9108ZM5.80285 10.598C5.95175 12.4676 6.35728 14.1371 6.93449 15.4151C4.61719 14.4003 2.95524 12.1666 2.75938 9.52498C3.5823 9.97383 4.62 10.3418 5.80285 10.598ZM11.7397 8.8896C11.109 8.96086 10.4393 9 9.74 9C9.04074 9 8.37096 8.96086 7.74032 8.8896C7.75345 6.66408 8.16286 4.74504 8.73919 3.44832C9.03322 2.78673 9.33155 2.37516 9.56178 2.15605C9.64367 2.07812 9.70294 2.03659 9.73999 2.01516C9.77705 2.03659 9.83631 2.07812 9.9182 2.15605C10.1484 2.37516 10.4468 2.78673 10.7408 3.44832C11.3171 4.74504 11.7265 6.66408 11.7397 8.8896ZM13.7346 8.52975C13.6815 6.20582 13.2365 4.11489 12.5455 2.58487C14.4927 3.43766 15.9772 5.15107 16.5179 7.24402C16.2863 7.46378 15.8919 7.73406 15.2917 8.00081C14.8429 8.20029 14.3195 8.37977 13.7346 8.52975Z" />
</svg>
