<svg viewBox="0 0 16 20" fill="currentColor" xmlns="http://www.w3.org/2000/svg">
    <path d="M5 4C4.44772 4 4 4.44772 4 5C4 5.55228 4.44772 6 5 6H11C11.5523 6 12 5.55228 12 5C12 4.44772 11.5523 4 11 4H5Z" />
    <path d="M5 8C4.44772 8 4 8.44772 4 9C4 9.55228 4.44772 10 5 10H11C11.5523 10 12 9.55228 12 9C12 8.44772 11.5523 8 11 8H5Z" />
    <path d="M9 15C9 15.5523 8.55228 16 8 16C7.44772 16 7 15.5523 7 15C7 14.4477 7.44772 14 8 14C8.55228 14 9 14.4477 9 15Z" />
    <path fill-rule="evenodd" clip-rule="evenodd" d="M0 3C0 1.34315 1.34315 0 3 0H13C14.6569 0 16 1.34315 16 3V17C16 18.6569 14.6569 20 13 20H3C1.34315 20 0 18.6569 0 17V3ZM3 2H13C13.5523 2 14 2.44772 14 3V17C14 17.5523 13.5523 18 13 18H3C2.44772 18 2 17.5523 2 17V3C2 2.44772 2.44771 2 3 2Z" />
</svg>
