<svg viewBox="0 0 12 12" fill="currentColor" xmlns="http://www.w3.org/2000/svg">
    <path fill-rule="evenodd" clip-rule="evenodd" d="M6.1564 11.998C6.10443 11.9993 6.05229 12 6 12C5.9477 12 5.89557 11.9993 5.8436 11.998C3.40991 11.9357 1.33657 10.4243 0.454377 8.29454C-0.154847 6.82045 -0.151441 5.15281 0.4646 3.68089C0.766126 2.96204 1.2036 2.31431 1.74485 1.76987L1.7699 1.74482C2.31155 1.20634 2.95545 0.770575 3.6699 0.46921C5.15365 -0.155264 6.83751 -0.156401 8.32198 0.465799C9.04128 0.767956 9.68928 1.20625 10.2337 1.74845L10.2515 1.76624C10.7993 2.31633 11.2411 2.97211 11.5435 3.70033C11.8367 4.40797 11.9887 5.16035 11.9994 5.91436C11.9998 5.94285 12 5.97139 12 5.99998C12 6.03037 11.9998 6.0607 11.9993 6.09099C11.9625 8.56459 10.4289 10.6755 8.26384 11.5582C7.58884 11.8328 6.87397 11.9794 6.1564 11.998ZM7.21933 8.06786L8.9436 9.79212C7.21686 11.136 4.78315 11.136 3.05641 9.79212L4.78068 8.06786C5.53052 8.51072 6.4695 8.51072 7.21933 8.06786ZM3.93215 7.21933L2.20788 8.94359C0.864041 7.21685 0.864041 4.78315 2.20788 3.05641L3.93215 4.78068C3.48929 5.53051 3.48929 6.46949 3.93215 7.21933ZM4.84943 6.34166C4.84639 6.33139 4.84349 6.32108 4.84073 6.31075C4.78643 6.10741 4.78643 5.89259 4.84073 5.68926C4.89334 5.49225 4.99692 5.30603 5.15148 5.15147C5.29792 5.00503 5.4728 4.90435 5.65835 4.84943C5.66862 4.84639 5.67892 4.84349 5.68926 4.84073C5.89259 4.78643 6.10741 4.78643 6.31075 4.84073C6.50775 4.89334 6.69398 4.99692 6.84853 5.15147C6.99498 5.29792 7.09566 5.4728 7.15058 5.65835C7.15362 5.66862 7.15652 5.67892 7.15928 5.68926C7.21358 5.89259 7.21358 6.10741 7.15928 6.31075C7.10667 6.50775 7.00309 6.69398 6.84853 6.84853C6.70209 6.99498 6.52721 7.09566 6.34166 7.15058C6.33139 7.15362 6.32109 7.15652 6.31075 7.15928C6.10742 7.21358 5.89259 7.21358 5.68926 7.15928C5.49225 7.10667 5.30603 7.00309 5.15148 6.84853C5.00503 6.70209 4.90435 6.5272 4.84943 6.34166ZM7.21933 3.93215C6.46949 3.48929 5.53052 3.48929 4.78068 3.93215L3.05641 2.20788C4.78315 0.86404 7.21686 0.86404 8.9436 2.20788L7.21933 3.93215ZM9.79212 8.94359C11.136 7.21685 11.136 4.78315 9.79212 3.05641L8.06786 4.78068C8.51072 5.53051 8.51072 6.46949 8.06786 7.21933L9.79212 8.94359Z" />
</svg>
