<svg viewBox="0 0 22 16" fill="currentColor" xmlns="http://www.w3.org/2000/svg">
    <path fill-rule="evenodd" clip-rule="evenodd" d="M13.7186 15.9964C13.7992 15.9988 13.88 16 13.9612 16C18.3795 16 21.9612 12.4183 21.9612 8C21.9612 3.58172 18.3795 0 13.9612 0C11.4348 0 9.18193 1.17108 7.71581 3H6.5C2.91015 3 0 5.91015 0 9.5C0 13.0899 2.91015 16 6.5 16H13.5C13.5732 16 13.646 15.9988 13.7186 15.9964ZM15.6719 13.721C18.0221 12.9522 19.9612 10.6815 19.9612 8C19.9612 4.68629 17.2749 2 13.9612 2C10.6475 2 7.96118 4.68629 7.96118 8H5.96118C5.96118 6.9391 6.16769 5.92643 6.5427 5H6.5C4.01472 5 2 7.01472 2 9.5C2 11.9853 4.01472 14 6.5 14H13.5C14.0497 14 14.8847 13.9014 15.6719 13.721Z" />
</svg>
