<svg viewBox="0 0 14 11" fill="currentColor" xmlns="http://www.w3.org/2000/svg">
    <path fill-rule="evenodd" clip-rule="evenodd" d="M7 3.04075C8.05436 3.04075 8.90909 3.89548 8.90909 4.94984C8.90909 5.78107 8.37785 6.48822 7.63636 6.7503V10.0407H6.36364V6.7503C5.62215 6.48822 5.09091 5.78107 5.09091 4.94984C5.09091 3.89548 5.94564 3.04075 7 3.04075ZM7 4.31348C7.35145 4.31348 7.63636 4.59839 7.63636 4.94984C7.63636 5.30129 7.35145 5.5862 7 5.5862C6.64855 5.5862 6.36364 5.30129 6.36364 4.94984C6.36364 4.59839 6.64855 4.31348 7 4.31348Z" />
    <path d="M3.85012 1.79998C3.04403 2.60609 2.54545 3.71971 2.54545 4.94978C2.54545 6.33547 3.17816 7.57338 4.17044 8.39038L5.07635 7.48447C4.31181 6.90333 3.81818 5.9842 3.81818 4.94978C3.81818 4.07116 4.1743 3.27572 4.75008 2.69993L3.85012 1.79998Z" />
    <path d="M9.24986 2.69986C9.82567 3.27566 10.1818 4.07113 10.1818 4.94978C10.1818 5.98424 9.68816 6.90339 8.92357 7.48452L9.82948 8.39044C10.8218 7.57344 11.4545 6.3355 11.4545 4.94978C11.4545 3.71967 10.9559 2.60603 10.1498 1.79991L9.24986 2.69986Z" />
    <path d="M0 4.94978C0 3.0168 0.783486 1.26682 2.05021 6.74211e-05L2.95017 0.900021C1.91376 1.93645 1.27273 3.36825 1.27273 4.94978C1.27273 6.5313 1.91376 7.9631 2.95016 8.99952L2.05021 9.89948C0.783483 8.63273 0 6.88275 0 4.94978Z" />
    <path d="M11.9497 9.89954C13.2165 8.63279 14 6.88278 14 4.94978C14 3.01676 13.2165 1.26675 11.9497 0L11.0498 0.899954C12.0862 1.93639 12.7273 3.36822 12.7273 4.94978C12.7273 6.53133 12.0862 7.96316 11.0498 8.99959L11.9497 9.89954Z" />
</svg>
