<svg viewBox="0 0 20 20" fill="currentColor" xmlns="http://www.w3.org/2000/svg">
    <path fill-rule="evenodd" clip-rule="evenodd" d="M10.2256 0.00253C7.59172 -0.0565444 4.93894 0.918902 2.92893 2.92891C-0.976311 6.83415 -0.97631 13.1658 2.92893 17.071C6.83418 20.9763 13.1658 20.9763 17.0711 17.071C19.0811 15.061 20.0565 12.4082 19.9975 9.77435C19.9796 8.97719 19.8669 8.18178 19.6595 7.40643C19.0933 7.9488 18.5078 8.42758 17.9163 8.84252C16.5649 9.79056 15.1826 10.4053 13.9301 10.6837C12.0241 11.1072 10.7156 10.7156 10 10C9.28441 9.28439 8.8928 7.97588 9.31635 6.0699C9.59469 4.81738 10.2094 3.43511 11.1575 2.08368C11.5724 1.49221 12.0512 0.906645 12.5935 0.340455C11.8182 0.133051 11.0228 0.0204097 10.2256 0.00253ZM15.6569 15.6568C16.9081 14.4056 17.6582 12.8431 17.9072 11.2186C14.3611 13.2643 10.638 13.4664 8.5858 11.4142C6.53361 9.36201 6.73568 5.63895 8.78139 2.09281C7.1569 2.34184 5.59434 3.09193 4.34315 4.34313C1.21895 7.46732 1.21895 12.5326 4.34315 15.6568C7.46734 18.781 12.5327 18.781 15.6569 15.6568Z" />
</svg>
