<svg viewBox="0 0 18 22" fill="currentColor" xmlns="http://www.w3.org/2000/svg">
    <path fill-rule="evenodd" clip-rule="evenodd" d="M13.2721 9.27214C13.2721 11.4813 11.4813 13.2721 9.27214 13.2721C7.06301 13.2721 5.27214 11.4813 5.27214 9.27214C5.27214 7.063 7.06301 5.27214 9.27214 5.27214C11.4813 5.27214 13.2721 7.063 13.2721 9.27214ZM11.2721 9.27214C11.2721 10.3767 10.3767 11.2721 9.27214 11.2721C8.16758 11.2721 7.27214 10.3767 7.27214 9.27214C7.27214 8.16757 8.16758 7.27214 9.27214 7.27214C10.3767 7.27214 11.2721 8.16757 11.2721 9.27214Z" />
    <path fill-rule="evenodd" clip-rule="evenodd" d="M2.79417 15.5183C-0.805757 12.0909 -0.945617 6.3941 2.48178 2.79418C5.90918 -0.805742 11.6059 -0.945602 15.2059 2.48179C18.8058 5.90919 18.9457 11.606 15.5183 15.2059L9.3124 21.7241L2.79417 15.5183ZM14.0698 13.8268L9.24298 18.8965L4.17324 14.0698C1.3733 11.404 1.26452 6.9732 3.93028 4.17326C6.59603 1.37332 11.0268 1.26454 13.8268 3.93029C16.6267 6.59604 16.7355 11.0269 14.0698 13.8268Z" />
</svg>
