<svg viewBox="0 0 12 14" fill="currentColor" xmlns="http://www.w3.org/2000/svg">
    <path d="M9.33333 1.16667C9.33333 0.522334 9.85567 0 10.5 0C11.1443 0 11.6667 0.522334 11.6667 1.16667V12.8333C11.6667 13.4777 11.1443 14 10.5 14C9.85567 14 9.33333 13.4777 9.33333 12.8333V1.16667Z" />
    <path d="M0 10.5C0 9.85567 0.522335 9.33333 1.16667 9.33333C1.811 9.33333 2.33333 9.85567 2.33333 10.5V12.8333C2.33333 13.4777 1.811 14 1.16667 14C0.522335 14 0 13.4777 0 12.8333V10.5Z" />
    <path d="M5.83333 4.66667C5.189 4.66667 4.66667 5.189 4.66667 5.83333V12.8333C4.66667 13.4777 5.189 14 5.83333 14C6.47767 14 7 13.4777 7 12.8333V5.83333C7 5.189 6.47767 4.66667 5.83333 4.66667Z" />
</svg>
