<svg viewBox="0 0 20 20" fill="currentColor" xmlns="http://www.w3.org/2000/svg">
    <path d="M10 4C10.5523 4 11 4.44772 11 5V11C11 11.5523 10.5523 12 10 12C9.44771 12 9 11.5523 9 11V5C9 4.44772 9.44771 4 10 4Z" />
    <path d="M10 14C9.44771 14 9 14.4477 9 15C9 15.5523 9.44771 16 10 16C10.5523 16 11 15.5523 11 15C11 14.4477 10.5523 14 10 14Z" />
    <path fill-rule="evenodd" clip-rule="evenodd" d="M10 0C4.47715 0 0 4.47715 0 10C0 15.5228 4.47715 20 10 20C15.5228 20 20 15.5228 20 10C20 4.47715 15.5228 0 10 0ZM2 10C2 14.4183 5.58172 18 10 18C14.4183 18 18 14.4183 18 10C18 5.58172 14.4183 2 10 2C5.58172 2 2 5.58172 2 10Z" />
</svg>
