<svg  viewBox="0 0 28 26" fill="current" xmlns="http://www.w3.org/2000/svg">
    <path fill="current" fill-rule="evenodd" clip-rule="evenodd" d="M18.6998 12.9862C18.6998 15.5822 16.5953 17.6867 13.9993 17.6867C11.4033 17.6867 9.29883 15.5822 9.29883 12.9862C9.29883 10.3902 11.4033 8.28568 13.9993 8.28568C16.5953 8.28568 18.6998 10.3902 18.6998 12.9862ZM16.3496 12.9862C16.3496 14.2842 15.2973 15.3364 13.9993 15.3364C12.7013 15.3364 11.6491 14.2842 11.6491 12.9862C11.6491 11.6882 12.7013 10.6359 13.9993 10.6359C15.2973 10.6359 16.3496 11.6882 16.3496 12.9862Z" />
    <path fill="current" fill-rule="evenodd" clip-rule="evenodd" d="M13.9991 2.41004C20.5698 2.41004 26.0909 6.90412 27.6564 12.9862C26.0909 19.0683 20.5698 23.5623 13.9991 23.5623C7.42833 23.5623 1.90722 19.0683 0.341797 12.9862C1.90722 6.90412 7.42833 2.41004 13.9991 2.41004ZM13.9991 21.2121C8.73971 21.2121 4.28233 17.755 2.7851 12.9862C4.28233 8.21735 8.73971 4.76029 13.9991 4.76029C19.2585 4.76029 23.7158 8.21735 25.2131 12.9862C23.7158 17.755 19.2585 21.2121 13.9991 21.2121Z" />
    <path fill="current" d="M20.9472 0.983125L20.9472 0.983124C20.4435 0.692306 19.7994 0.86489 19.5086 1.3686L6.69455 23.5632C6.40373 24.0669 6.57632 24.711 7.08003 25.0018C7.58374 25.2926 8.22784 25.12 8.51866 24.6163L21.3327 2.42175C21.6235 1.91804 21.4509 1.27394 20.9472 0.983125Z" />
</svg>
