<svg viewBox="0 0 28 22" fill="current" xmlns="http://www.w3.org/2000/svg">
    <path fill-rule="evenodd" clip-rule="evenodd" d="M18.8185 11C18.8185 13.6612 16.6612 15.8185 14 15.8185C11.3388 15.8185 9.18153 13.6612 9.18153 11C9.18153 8.33883 11.3388 6.18153 14 6.18153C16.6612 6.18153 18.8185 8.33883 18.8185 11ZM16.4092 11C16.4092 12.3306 15.3306 13.4092 14 13.4092C12.6694 13.4092 11.5908 12.3306 11.5908 11C11.5908 9.66942 12.6694 8.59076 14 8.59076C15.3306 8.59076 16.4092 9.66942 16.4092 11Z" />
    <path fill-rule="evenodd" clip-rule="evenodd" d="M14 0.158442C20.7356 0.158442 26.3953 4.76529 28 11C26.3953 17.2347 20.7356 21.8416 14 21.8416C7.26436 21.8416 1.60471 17.2347 0 11C1.60471 4.76529 7.26436 0.158442 14 0.158442ZM14 19.4323C8.60866 19.4323 4.0394 15.8885 2.50462 11C4.0394 6.1115 8.60866 2.56768 14 2.56768C19.3913 2.56768 23.9606 6.1115 25.4954 11C23.9606 15.8885 19.3913 19.4323 14 19.4323Z" />
</svg>