<svg viewBox="0 0 13 10" fill="currentColor" xmlns="http://www.w3.org/2000/svg">
    <path d="M2.70833 0.555556C2.70833 0.86238 2.46582 1.11111 2.16667 1.11111C1.86751 1.11111 1.625 0.86238 1.625 0.555556C1.625 0.248731 1.86751 0 2.16667 0C2.46582 0 2.70833 0.248731 2.70833 0.555556Z"/>
    <path d="M4.875 0.555556C4.875 0.86238 4.63249 1.11111 4.33333 1.11111C4.03418 1.11111 3.79167 0.86238 3.79167 0.555556C3.79167 0.248731 4.03418 0 4.33333 0C4.63249 0 4.875 0.248731 4.875 0.555556Z"/>
    <path d="M6.5 1.11111C6.79915 1.11111 7.04167 0.86238 7.04167 0.555556C7.04167 0.248731 6.79915 0 6.5 0C6.20085 0 5.95833 0.248731 5.95833 0.555556C5.95833 0.86238 6.20085 1.11111 6.5 1.11111Z"/>
    <path d="M9.20833 0.555556C9.20833 0.86238 8.96582 1.11111 8.66667 1.11111C8.36751 1.11111 8.125 0.86238 8.125 0.555556C8.125 0.248731 8.36751 0 8.66667 0C8.96582 0 9.20833 0.248731 9.20833 0.555556Z"/>
    <path d="M10.8333 1.11111C11.1325 1.11111 11.375 0.86238 11.375 0.555556C11.375 0.248731 11.1325 0 10.8333 0C10.5342 0 10.2917 0.248731 10.2917 0.555556C10.2917 0.86238 10.5342 1.11111 10.8333 1.11111Z"/>
    <path d="M2.70833 9.44444C2.70833 9.75127 2.46582 10 2.16667 10C1.86751 10 1.625 9.75127 1.625 9.44444C1.625 9.13762 1.86751 8.88889 2.16667 8.88889C2.46582 8.88889 2.70833 9.13762 2.70833 9.44444Z"/>
    <path d="M4.875 9.44444C4.875 9.75127 4.63249 10 4.33333 10C4.03418 10 3.79167 9.75127 3.79167 9.44444C3.79167 9.13762 4.03418 8.88889 4.33333 8.88889C4.63249 8.88889 4.875 9.13762 4.875 9.44444Z"/>
    <path d="M6.5 10C6.79915 10 7.04167 9.75127 7.04167 9.44444C7.04167 9.13762 6.79915 8.88889 6.5 8.88889C6.20085 8.88889 5.95833 9.13762 5.95833 9.44444C5.95833 9.75127 6.20085 10 6.5 10Z"/>
    <path d="M9.20833 9.44444C9.20833 9.75127 8.96582 10 8.66667 10C8.36751 10 8.125 9.75127 8.125 9.44444C8.125 9.13762 8.36751 8.88889 8.66667 8.88889C8.96582 8.88889 9.20833 9.13762 9.20833 9.44444Z"/>
    <path d="M10.8333 10C11.1325 10 11.375 9.75127 11.375 9.44444C11.375 9.13762 11.1325 8.88889 10.8333 8.88889C10.5342 8.88889 10.2917 9.13762 10.2917 9.44444C10.2917 9.75127 10.5342 10 10.8333 10Z"/>
    <path d="M2.70833 5C3.00749 5 3.25 4.75127 3.25 4.44444C3.25 4.13762 3.00749 3.88889 2.70833 3.88889C2.40918 3.88889 2.16667 4.13762 2.16667 4.44444C2.16667 4.75127 2.40918 5 2.70833 5Z"/>
    <path d="M10.8333 5.55556C10.8333 5.86238 10.5908 6.11111 10.2917 6.11111C9.99251 6.11111 9.75 5.86238 9.75 5.55556C9.75 5.24873 9.99251 5 10.2917 5C10.5908 5 10.8333 5.24873 10.8333 5.55556Z"/>
    <path fill-rule="evenodd" clip-rule="evenodd" d="M0 3.33333C0 2.41286 0.727537 1.66667 1.625 1.66667H11.375C12.2725 1.66667 13 2.41286 13 3.33333V6.66667C13 7.58714 12.2725 8.33333 11.375 8.33333H1.625C0.727537 8.33333 0 7.58714 0 6.66667V3.33333ZM1.625 2.77778H11.375C11.6742 2.77778 11.9167 3.02651 11.9167 3.33333V6.66667C11.9167 6.97349 11.6742 7.22222 11.375 7.22222H1.625C1.32585 7.22222 1.08333 6.97349 1.08333 6.66667V3.33333C1.08333 3.02651 1.32585 2.77778 1.625 2.77778Z"/>
</svg>
