<svg viewBox="0 0 24 12" fill="currentColor" xmlns="http://www.w3.org/2000/svg">
    <path d="M6 6C6 6.55228 5.55228 7 5 7C4.44772 7 4 6.55228 4 6C4 5.44772 4.44772 5 5 5C5.55228 5 6 5.44772 6 6Z" />
    <path d="M9 7C9.55228 7 10 6.55228 10 6C10 5.44772 9.55228 5 9 5C8.44771 5 8 5.44772 8 6C8 6.55228 8.44771 7 9 7Z" />
    <path d="M14 6C14 6.55228 13.5523 7 13 7C12.4477 7 12 6.55228 12 6C12 5.44772 12.4477 5 13 5C13.5523 5 14 5.44772 14 6Z" />
    <path d="M20 5H16V7H20V5Z" />
    <path fill-rule="evenodd" clip-rule="evenodd" d="M2 0C0.895431 0 0 0.895431 0 2V10C0 11.1046 0.89543 12 2 12H22C23.1046 12 24 11.1046 24 10V2C24 0.895431 23.1046 0 22 0H2ZM22 2H2L2 10H22V2Z" />
</svg>
